<?xml version="1.0" encoding="UTF-8"?>
<svg id="Design" xmlns="http://www.w3.org/2000/svg" version="1.1" viewBox="0 0 1240.9 200.9">
  <!-- Generator: Adobe Illustrator 30.4.0, SVG Export Plug-In . SVG Version: 2.1.4 Build 226)  -->
  <g>
    <path d="M568.5,131.8c4.3-4.2,6.7-4.1,7-10.8,1.1-24.2.4-51,0-78,0-1.8-.5-3.7-1.8-5.1-1.7-1.9-4.8-1.3-5.2-3.5h13.3c0,0,42.6,86,42.6,86l35.9-86h12s-4.6,8.6-4.6,8.6c0,25.2,0,53.5,0,78,0,5.4,1.8,7.5,5.8,10.8h-17.3c.5-1.7,4.6-4.9,4.6-6.3V40.1l-38.1,90.6-45-89.4v83.1c0,2.6,7.8,6.4,6.9,7.5h-16.2,0Z"/>
    <path d="M0,131.8c1.7-2.5,5.2-3.3,6.8-6.5,1.1-2.2,1.4-3.2,1.4-5.5,0-24.4,0-49.4,0-75.7,0-2-.7-3.5-1.8-5.1-1.6-2.5-4.2-2.5-5.1-4.6h12.1c0,0,42.6,84.8,42.6,84.8l36.4-84.7h12.5c.1,1.7-2.2,1.2-3.4,2.8-.9,1.3-1.2,2.9-1.3,4.5-.3,27.9-.6,55.4,0,81.5-.8,4.1,3,5.5,4.7,8.5h-17.3c1.3-2.2,5.8-6,5.8-8.6V40.1l-39.8,90.6L9.2,40.1v83.1c0,.3,2.3,4.4,2.7,4.8,1.6,1.7,5.5,1.9,5.4,3.8H0Z"/>
    <path d="M926,130.7c7.7-4.1,14.5-4.6,21.2-11.6,34.8-36.2-7.5-105.6-50.4-77.6-36.7,23.9-16.8,91.6,29.2,89.2-.4.2-2.6,1.6-2.3,2.3,13.6,5,23.4,17.5,39.2,10.3-1,3.1-4.3,6.2-7.6,6.8-19.1,3.5-24.5-19.5-43.7-17-3.7.5-6.4,2.8-9.9,3.3l8.1-5.7c-41.1-7-54.9-60.7-21.8-86.5,38.2-29.8,92.1,6.5,78,53.5-5.1,16.8-22.1,32.1-40,33h0Z"/>
    <path d="M828.6,34.4c33.8,4.2,39.3,46.6,3.4,57.3-1.3.4-2.1-.8-1.7,1.7,10,12.5,16,28.3,28.8,38.4l-12.1-1.1h0l-25.4-37.8h-19.8c-.6,0-1.2.2-1.6.7l-.4.4c-.4.4-.7,1-.7,1.6v26.6c0,3.4,3.9,7.2,5.8,9.7h-17.3c.9-2.2,3.3-3,4.3-5.5,2.7-6.7,2.5-69.5,1.4-79.9-.2-2.1-1.1-6.6-2-8.3,0,0,0,0,0,0-.9-1.5.2-3.4,1.9-3.4,11.6.2,24.5-1.6,35.3-.3h0ZM800.3,36.2l-.4.4c-.4.4-.7,1-.7,1.6v50.9c0,.6.2,1.2.7,1.6l.4.4c.4.4,1,.7,1.6.7h22.1c2.4,0,10.2-3.3,12.5-4.8,16.8-11,15-40.9-3.9-48.5-1.6-.6-8.7-2.9-9.8-2.9h-21c-.6,0-1.2.2-1.6.7h0Z"/>
    <path d="M386.3,130.4c-5.6.4-10.8.4-16.5-.8-5.6-1.2-11-3.2-15.9-6-7.8-4.4-14.3-10.9-18.7-18.7-5-9.1-6.7-19.6-5.4-29.9,4.9-37.7,51.6-54.2,80.7-29.8,12.7,10.6,19,26.8,17,43.2-1.9,15.5-11.2,30-25.2,37.3-5,2.6-10.4,4.3-16.1,4.7,21.4-4.5,33.5-24.7,33.3-45.6,0-2.1-.2-4.2-.4-6.3-1.8-14.2-9-28-20.9-36.1-11.9-8.1-28.5-9.6-40.8-2.2-12.4,7.4-18.7,22.3-19.5,36.7-.7,14.1,3.4,28.6,12.6,39.3,3.8,4.5,8.5,8.2,13.9,10.6,6.9,3,14.6,3.2,22.1,3.6,0,0-.2,0-.3,0h0Z"/>
    <path d="M1104.8,106.6l6.4,11.4c12,20.7,59.1,15.2,50.7-12.6-5.5-18.4-55.6-21-54.9-49.8.5-21.2,23.9-27.4,41.2-21.5,4.7,1.6,10.3,7.9,14.7,4.7,1.6-1.2,1.2-3.4,3-3.3v18.3l-8.2-11.9c-14.4-14-48.3-11.3-44.7,13.5,2.7,18.9,45.4,22.5,53.5,44.3,7.2,19.2-12.1,33.9-29.9,33.2-7.8-.3-20.2-6.9-25.5-6.8-2.7,0-4.1,2.4-6.3,3.3v-22.9h0Z"/>
    <path d="M313.7,36.7l1.2,16-12.3-13.6c-13.2-10-41.9-7-41.9,13,0,24.2,52.9,25.5,55.4,52.7,2.2,23.9-22.8,30.9-42.3,26-3.9-1-9.4-4.2-12.8-4.5-3.3-.3-4.3,2.1-7.2,2.1l-1.1-21.8c4,4.9,6.2,11.7,11,16,13.7,12.6,47.2,10.6,47.9-10.9.8-26-59-24.4-55.4-58.4,2-19.6,22.6-24.5,39.2-19.5,7.3,2.2,12.2,10,18.4,2.9h0Z"/>
    <path d="M1097.9,0l-13.9,1.7c-41.2,13.2-27.3,66-29.9,98.7-1.3,16.4-8.1,30-25.9,31.5-58.1,5-34.5-56.2-39.9-90-.6-3.6-2.8-4.8-4.6-7.5h16.2c-.2,2-2.6,1.3-3.8,3.7-.8,1.6-.7,3.2-.9,4.9-1.4,15-1.3,44.6,0,59.7,1,11.2,6.2,21.4,17.4,25.1,17.1,5.7,36-2.2,38.9-20.9,4.4-28.4-10.6-87.8,21.4-103.7,1.1-.5,7.8-3.2,8.3-3.2h16.7Z"/>
    <path d="M508.6,115.8V43c0-.7-2.1-4.4-2.8-5.2-1.4-1.6-4-1.5-4.1-3.3h15c-1.2,1.9-6.9,4.9-6.9,7.4v88.8l-64.6-90.6v83.1c0,.9,3.5,4.8,4.6,5.8,1.5,1.4,3.8,1.2,3.5,2.8h-16.2c4.3-4.2,7-4.1,7-10.8,0-18.1-.3-57.9,0-76.9,0-1.9-.7-4.8-1.8-6.2-1.6-2.1-4.7-1.3-5.1-3.5,5.1.6,11.9-1.9,15.6,2.2l55.9,79.2h0Z"/>
    <path d="M203,131.8h-18.5c.5-2,3.2-2.9,4-4.6,2.7-5.8-8.7-26.4-9.7-33.7l-36.9-.5c-1.8,12.6-18.1,29.5-3.6,38.8h-17.3l8.1-9.7,34-88.9,33.8,90.2,6,8.4h0ZM143,90.6h33.4l-15.6-43.6-17.9,43.6Z"/>
    <path d="M689.6,131.8l7.5-9.2,33.5-88.3c2.3-.5,1.8.9,2.2,2.3,9.7,27.9,20.9,59.1,31.5,85.6,1.7,4.3,4.5,6.1,7.1,9.5h-18.5c1.8-3,4.8-4.3,4.4-8.3-.2-2.5-9.9-29.2-11.3-30.1h-35.8c-2.4,8.7-13,25.6-9,33.1,1.6,2.9,4.3,3,5.6,5.3h-17.3ZM745,90.6l-16.7-44.7-16.7,44.7h33.4,0Z"/>
    <path d="M1238.6,34.4l2.3,11.5c-3.1-3.8-10.3-10.3-15.6-10.3h-31.7v45.8h23.6c.4,0,4.1-1.8,4.7-2.2,1.3-1,1.5-4.7,2.8-2.9v10.9c-.3.3-5.3-4.6-7.5-4.6h-23.6v47h34c1.2,0,6.7-3.5,8-4.6,2.4-1.9,3.1-4.2,5.2-5.7l-2.3,12.6h-56.5c1.7-3,4.6-4.1,4.7-8.5-.4-26.7,0-55.2,0-81.5,0-1.6-.3-3.1-1.3-4.5-1.1-1.6-3.5-1.2-3.4-3h56.5Z"/>
    <path d="M236.4,34.4c.1,1.8-2.2,1.3-3.4,3-.9,1.3-1.2,2.9-1.3,4.5-.1,25.6,1.6,58.9.9,85.1l3.7,4.9h-17.3c4.3-3.3,6-6.5,5.8-12-.3-11-.5-74.9-1.5-81.2-.3-1.9-2.6-2.6-3.2-4.3h16.1Z"/>
    <path d="M1087.5,34.4c-.6,1.7-2.8,2.4-3.2,4.3-1.2,5.8-1.3,77.6-1.3,87.9,0,1.4.8,1.2,4.5,5.3h-16.1l3.7-4.9c.9-26.2.9-58.9.9-85.1,0-1.6-.3-3.1-1.3-4.5-1.1-1.6-3.5-1.2-3.4-3h16.2,0Z"/>
  </g>
  <g>
    <path d="M302.7,172.5c1.5-.3,3.9-.5,6.3-.5,3.5,0,5.7.6,7.3,1.8,1.4,1,2.2,2.5,2.2,4.4s-1.7,4.5-4.5,5.5h0c2.5.7,5.5,2.6,5.5,6.4s-.9,3.8-2.3,5c-1.9,1.6-4.9,2.3-9.2,2.3s-4.2-.2-5.4-.3v-24.7h0ZM306.1,182.8h3.1c3.7,0,5.8-1.8,5.8-4.2s-2.4-4.1-5.9-4.1-2.5.1-3.1.2v8.1h0ZM306.1,194.8c.7.1,1.7.2,2.9.2,3.6,0,6.9-1.2,6.9-4.9s-3.1-4.8-6.9-4.8h-2.9v9.6h0Z"/>
    <path d="M331.8,172.2v25.1h-3.5v-25.1h3.5Z"/>
    <path d="M355.9,185.5h-10.4v9h11.6v2.7h-15v-25.1h14.5v2.7h-11v7.9h10.4v2.7h0Z"/>
    <path d="M365.7,197.2v-25.1h3.8l8.6,12.7c2,2.9,3.5,5.6,4.8,8.2h0c-.3-3.4-.4-6.4-.4-10.3v-10.5h3.2v25.1h-3.5l-8.5-12.7c-1.9-2.8-3.7-5.7-5-8.4h-.1c.2,3.2.3,6.2.3,10.4v10.7h-3.3,0Z"/>
    <path d="M408.6,172.5c1.7-.3,3.8-.5,6.6-.5s5.9.7,7.5,2.1c1.5,1.2,2.3,3,2.3,5.2s-.7,4-2.1,5.4c-1.8,1.8-4.8,2.8-8.2,2.8s-2,0-2.8-.2v10h-3.5v-24.8h0ZM412,184.5c.8.2,1.7.3,2.9.3,4.2,0,6.7-1.9,6.7-5.4s-2.5-4.9-6.3-4.9-2.7.1-3.3.3v9.8h0Z"/>
    <path d="M433.9,172.2h3.5v22.4h11.4v2.7h-14.9v-25.1h0Z"/>
    <path d="M458.8,172.2v14.8c0,5.6,2.7,8,6.2,8s6.5-2.5,6.5-8v-14.8h3.5v14.6c0,7.7-4.3,10.9-10.1,10.9s-9.6-2.9-9.6-10.7v-14.8h3.5Z"/>
    <path d="M484.7,193.3c1.5.9,3.8,1.6,6.2,1.6,3.5,0,5.6-1.8,5.6-4.3s-1.4-3.7-5-5c-4.4-1.5-7.1-3.6-7.1-7.1s3.5-6.8,8.7-6.8,4.7.6,5.9,1.2l-1,2.6c-.9-.5-2.7-1.2-5.1-1.2-3.7,0-5,2-5,3.8s1.6,3.5,5.3,4.8c4.5,1.6,6.8,3.7,6.8,7.4s-3.1,7.2-9.4,7.2-5.4-.7-6.8-1.6l.9-2.7h0Z"/>
    <path d="M543.6,200.9c-3.6-.9-7.2-1.9-10.2-2.9-.6-.2-1.1-.4-1.6-.4-6.3-.2-11.8-4.6-11.8-12.7s5.2-13.2,12.5-13.2,12,5.3,12,12.7-3.2,10.6-7.6,12v.2c2.7.6,5.6,1.2,7.8,1.6l-1,2.7h0ZM540.8,184.6c0-5-2.8-10.2-8.5-10.2s-8.7,5.1-8.7,10.5c0,5.3,3.1,10.1,8.5,10.1s8.6-4.7,8.6-10.4h0Z"/>
    <path d="M556.5,172.2v14.8c0,5.6,2.7,8,6.2,8s6.5-2.5,6.5-8v-14.8h3.5v14.6c0,7.7-4.3,10.9-10.1,10.9s-9.6-2.9-9.6-10.7v-14.8h3.5Z"/>
    <path d="M587,171.7c-.9,3.1-2.6,7.1-3.7,8.8l-2.2.3c.9-2.2,1.9-6.1,2.3-8.7l3.6-.3h0Z"/>
    <path d="M598.5,172.2v14.8c0,5.6,2.7,8,6.2,8s6.5-2.5,6.5-8v-14.8h3.5v14.6c0,7.7-4.3,10.9-10.1,10.9s-9.6-2.9-9.6-10.7v-14.8h3.5Z"/>
    <path d="M625,197.2v-25.1h3.8l8.6,12.7c2,2.9,3.5,5.6,4.8,8.2h0c-.3-3.4-.4-6.4-.4-10.3v-10.5h3.2v25.1h-3.5l-8.5-12.7c-1.9-2.8-3.7-5.7-5-8.4h-.1c.2,3.2.3,6.2.3,10.4v10.7h-3.3,0Z"/>
    <path d="M669.1,185.5h-10.4v9h11.6v2.7h-15v-25.1h14.5v2.7h-11v7.9h10.4v2.7h0Z"/>
    <path d="M691.5,172.5c1.5-.3,3.9-.5,6.3-.5,3.5,0,5.7.6,7.3,1.8,1.4,1,2.2,2.5,2.2,4.4s-1.7,4.5-4.5,5.5h0c2.5.7,5.5,2.6,5.5,6.4s-.9,3.8-2.3,5c-1.9,1.6-4.9,2.3-9.2,2.3s-4.2-.2-5.4-.3v-24.7h0ZM695,182.8h3.1c3.7,0,5.8-1.8,5.8-4.2s-2.4-4.1-5.9-4.1-2.5.1-3.1.2v8.1h0ZM695,194.8c.7.1,1.7.2,2.9.2,3.6,0,6.9-1.2,6.9-4.9s-3.1-4.8-6.9-4.8h-2.9v9.6h0Z"/>
    <path d="M740.1,184.4c0,8.6-5.6,13.2-12.4,13.2s-12-5.1-12-12.7,5.3-13.2,12.4-13.2,12,5.2,12,12.7h0ZM719.3,184.8c0,5.4,3.1,10.2,8.5,10.2s8.6-4.7,8.6-10.4-2.8-10.2-8.5-10.2-8.6,5-8.6,10.5h0Z"/>
    <path d="M752.2,172.2v14.8c0,5.6,2.7,8,6.2,8s6.5-2.5,6.5-8v-14.8h3.5v14.6c0,7.7-4.3,10.9-10.1,10.9s-9.6-2.9-9.6-10.7v-14.8h3.5Z"/>
    <path d="M778.6,172.2h3.5v22.4h11.4v2.7h-14.9v-25.1h0Z"/>
    <path d="M805.8,189.3l-2.8,7.9h-3.6l9.1-25.1h4.2l9.1,25.1h-3.7l-2.9-7.9h-9.5ZM814.6,186.8l-2.6-7.2c-.6-1.6-1-3.1-1.4-4.6h0c-.4,1.5-.8,3-1.3,4.5l-2.6,7.2h8.1,0Z"/>
    <path d="M830,197.2v-25.1h3.8l8.6,12.7c2,2.9,3.5,5.6,4.8,8.2h0c-.3-3.4-.4-6.4-.4-10.3v-10.5h3.2v25.1h-3.5l-8.5-12.7c-1.9-2.8-3.7-5.7-5-8.4h-.1c.2,3.2.3,6.2.3,10.4v10.7h-3.3,0Z"/>
    <path d="M880.6,196.1c-1.6.5-4.6,1.4-8.2,1.4s-7.4-1-10-3.3c-2.3-2.1-3.7-5.4-3.7-9.3,0-7.5,5.5-13,14.5-13s5.5.6,6.7,1.2l-.8,2.6c-1.4-.6-3.2-1.1-5.9-1.1-6.5,0-10.8,3.8-10.8,10.1s4.1,10.1,10.3,10.1,3.8-.3,4.6-.7v-7.5h-5.4v-2.6h8.8v12h0Z"/>
    <path d="M903.9,185.5h-10.4v9h11.6v2.7h-15.1v-25.1h14.4v2.7h-11v7.9h10.4v2.7h0Z"/>
    <path d="M913.8,172.5c1.8-.3,4.2-.5,6.6-.5,3.7,0,6.1.6,7.7,2,1.3,1.1,2.1,2.8,2.1,4.8,0,3.3-2.2,5.5-5,6.4h0c2.1.8,3.3,2.6,3.9,5.2.9,3.5,1.5,5.9,2.1,6.9h-3.6c-.4-.7-1-2.9-1.8-6-.8-3.5-2.2-4.8-5.4-4.9h-3.3v10.9h-3.4v-24.7h0ZM917.2,183.9h3.5c3.7,0,6-1.9,6-4.8s-2.5-4.7-6.2-4.7c-1.7,0-2.9.2-3.4.3v9.2Z"/>
    <path d="M942.7,172.2v25.1h-3.4v-25.1h3.4Z"/>
    <path d="M966.8,185.5h-10.4v9h11.6v2.7h-15.1v-25.1h14.4v2.7h-11v7.9h10.4v2.7h0Z"/>
  </g>
</svg>