<?xml version="1.0" encoding="UTF-8"?>
<svg id="Design" xmlns="http://www.w3.org/2000/svg" viewBox="0 0 1682.98 1682.98">
  <g>
    <path d="M975.28,653.05v1.79h-17.51c-.31,0-5.04,1.93-5.75,2.32-6.31,3.48-8.06,11.2-9.05,17.78-.58,51.31-.59,102.24-.06,152.66.07,6.73,2.39,15.4,8.7,19.02.96.55,7.32,2.81,7.95,2.81h16.61v.89h-89.79v-.89h15.71c3.57,0,10.18-3.39,12.6-6.22,2.2-2.57,4.91-9.81,4.91-12.97v-173.61l-68.05,101.46,33.93,51.62v40.61l-2.54-1.49-125.1-187.16c-2.61-2.84-10.07-6.83-13.78-6.83h-20.2v-1.79h56.12l70.04,103.52,70.04-103.52h55.22Z"/>
    <polygon points="844.19 850.3 842.13 849.17 747.21 707.94 747.21 671.79 749.76 673.28 844.19 814.16 844.19 850.3"/>
    <path d="M801.09,976.16c3.37-3.3,5.2-3.22,5.43-8.44.85-18.81.33-39.74-.03-60.75-.08-1.43-.42-2.87-1.39-3.98-1.31-1.51-3.7-1.05-4.01-2.69l10.36-.07,33.19,67.02,27.96-66.97,9.3.03-3.61,6.67c0,19.65-.07,41.66-.03,60.76,0,4.21,1.43,5.85,4.54,8.43h-13.47c.41-1.31,3.59-3.82,3.59-4.91v-66.5l-29.64,70.51-35.01-69.62v64.71c0,2.02,6.05,4.97,5.39,5.8h-12.57Z"/>
    <path d="M358.41,976.16c1.33-1.93,4.03-2.6,5.27-5.03.87-1.7,1.06-2.48,1.06-4.3-.05-19.01,0-38.47-.02-58.97.02-1.55-.57-2.72-1.4-3.96-1.27-1.92-3.27-1.94-4-3.59l9.46-.07,33.2,66.12,28.37-65.95,9.77-.09c.08,1.39-1.74,1.02-2.62,2.29-.73,1.05-.97,2.26-.98,3.49-.24,21.73-.5,43.16-.04,63.44-.61,3.21,2.32,4.31,3.65,6.64h-13.47c.99-1.73,4.49-4.65,4.49-6.69v-64.71l-30.98,70.52-34.57-70.52v64.71c0,.21,1.77,3.43,2.07,3.75,1.28,1.35,4.25,1.45,4.22,2.95h-13.47Z"/>
    <path d="M1079.44,975.26c6-3.23,11.3-3.59,16.52-9.02,27.07-28.15-5.81-82.2-39.26-60.45-28.58,18.58-13.1,71.31,22.74,69.47-.28.15-2.04,1.25-1.79,1.77,10.62,3.92,18.23,13.63,30.52,8.05-.79,2.39-3.35,4.83-5.88,5.3-14.86,2.73-19.07-15.15-34-13.26-2.92.37-4.95,2.2-7.71,2.59l6.28-4.44c-32-5.49-42.74-47.26-16.98-67.32,29.76-23.17,71.74,5.07,60.72,41.62-3.96,13.12-17.18,24.98-31.17,25.7Z"/>
    <path d="M1003.57,900.29c26.3,3.25,30.57,36.25,2.66,44.61-1,.3-1.6-.61-1.3,1.34,7.78,9.76,12.43,22.07,22.44,29.91l-9.42-.89s0,0,0,0l-19.76-29.45s0,0,0,0h-15.44c-.46,0-.9.18-1.23.51l-.33.33c-.33.32-.51.76-.51,1.22v20.71c0,2.63,3,5.6,4.49,7.58,0,0,0,0,0,0h-13.47c.73-1.75,2.59-2.36,3.36-4.25,2.11-5.19,1.93-54.15,1.12-62.24-.17-1.66-.82-5.13-1.56-6.49-.01-.02-.02-.04-.03-.06-.67-1.19.13-2.64,1.5-2.62,9.03.15,19.09-1.26,27.49-.22ZM981.51,901.69l-.33.33c-.33.32-.51.76-.51,1.22v39.63c0,.46.18.9.51,1.22l.33.33c.33.32.77.51,1.23.51h17.24c1.85,0,7.92-2.54,9.73-3.72,13.1-8.54,11.65-31.83-3-37.77-1.22-.5-6.8-2.24-7.62-2.24h-16.34c-.46,0-.9.18-1.23.51Z"/>
    <path d="M659.19,975.06c-4.36.33-8.44.28-12.81-.64-4.33-.91-8.55-2.47-12.4-4.66-6.04-3.43-11.16-8.46-14.53-14.52-3.93-7.07-5.24-15.28-4.2-23.25,3.84-29.37,40.19-42.17,62.84-23.24,9.86,8.24,14.82,20.91,13.26,33.61-1.49,12.11-8.71,23.33-19.66,29.03-3.9,2.03-8.12,3.35-12.52,3.67,16.68-3.54,26.08-19.26,25.96-35.47-.01-1.64-.12-3.28-.32-4.9-1.36-11.06-7-21.84-16.25-28.14s-22.19-7.46-31.79-1.71c-9.65,5.78-14.58,17.36-15.15,28.55-.56,10.95,2.65,22.25,9.8,30.6,2.97,3.46,6.61,6.42,10.81,8.22,5.38,2.31,11.35,2.51,17.2,2.82-.07,0-.15.02-.22.03Z"/>
    <path d="M1218.62,956.52l5,8.87c9.38,16.13,45.98,11.87,39.49-9.8-4.29-14.32-43.29-16.34-42.72-38.75.42-16.51,18.65-21.36,32.09-16.74,3.67,1.26,7.99,6.14,11.41,3.68,1.27-.91.93-2.65,2.32-2.6v14.28l-6.38-9.27c-11.25-10.87-37.64-8.84-34.84,10.54,2.13,14.74,35.33,17.55,41.64,34.47,5.58,14.93-9.39,26.36-23.27,25.89-6.1-.21-15.76-5.35-19.83-5.3-2.1.03-3.22,1.83-4.92,2.59v-17.85Z"/>
    <path d="M602.64,902.07l.9,12.49-9.57-10.56c-10.27-7.74-32.6-5.47-32.62,10.11-.02,18.86,41.22,19.82,43.13,41.01,1.68,18.61-17.76,24.09-32.95,20.27-3.03-.76-7.31-3.3-9.97-3.54s-3.33,1.65-5.6,1.62l-.89-16.95c3.16,3.8,4.82,9.07,8.53,12.49,10.65,9.83,36.78,8.27,37.3-8.5.63-20.23-45.91-19-43.14-45.5,1.59-15.23,17.63-19.07,30.53-15.17,5.71,1.73,9.53,7.82,14.36,2.23Z"/>
    <path d="M1213.24,873.51l-10.82,1.29c-32.12,10.3-21.27,51.35-23.27,76.84-1,12.76-6.32,23.34-20.2,24.55-45.2,3.93-26.87-43.73-31.06-70.05-.45-2.79-2.22-3.73-3.54-5.85h12.57c-.17,1.54-2.04,1.04-2.95,2.87-.61,1.22-.56,2.47-.68,3.78-1.1,11.68-1,34.73,0,46.49.75,8.69,4.83,16.65,13.53,19.58,13.3,4.47,28.02-1.75,30.29-16.25,3.46-22.09-8.25-68.33,16.66-80.72.84-.42,6.1-2.52,6.45-2.52h13.02Z"/>
    <path d="M754.39,963.66v-56.68c0-.51-1.63-3.45-2.17-4.09-1.07-1.27-3.1-1.15-3.21-2.6h11.66c-.94,1.47-5.38,3.79-5.38,5.79v69.17l-50.28-70.51v64.71c0,.72,2.75,3.74,3.55,4.51,1.13,1.08,2.97.94,2.73,2.19h-12.57c3.37-3.3,5.45-3.21,5.43-8.44-.04-14.07-.27-45.11-.05-59.84.02-1.46-.52-3.74-1.39-4.87-1.27-1.65-3.69-1.01-4-2.71,3.96.49,9.25-1.49,12.16,1.73l43.51,61.63Z"/>
    <path d="M516.44,976.16h-14.37c.38-1.58,2.52-2.26,3.14-3.59,2.1-4.53-6.77-20.55-7.53-26.23l-28.71-.41c-1.4,9.84-14.12,22.95-2.82,30.22h-13.47l6.29-7.58,26.48-69.19,26.32,70.24,4.65,6.53ZM469.75,944.02h26.04l-12.13-33.92-13.91,33.92Z"/>
    <path d="M895.37,976.16l5.83-7.15,26.05-68.73c1.83-.38,1.36.67,1.75,1.79,7.57,21.75,16.28,46.05,24.56,66.67,1.33,3.32,3.47,4.74,5.56,7.42h-14.37c1.36-2.31,3.71-3.37,3.42-6.47-.18-1.95-7.73-22.77-8.77-23.47h-27.91c-1.85,6.75-10.16,19.95-7.03,25.81,1.22,2.28,3.39,2.33,4.37,4.13h-13.47ZM938.47,944.02l-13.02-34.82-13.02,34.82h26.04Z"/>
    <path d="M1322.78,900.29l1.79,8.93c-2.44-2.99-8.06-8.03-12.11-8.03h-24.69v35.7h18.41c.3,0,3.16-1.37,3.64-1.74.98-.76,1.15-3.62,2.2-2.27v8.48c-.21.28-4.16-3.57-5.84-3.57h-18.41v36.6h26.49c.94,0,5.22-2.74,6.26-3.59,1.85-1.5,2.41-3.3,4.06-4.44l-1.79,9.81h-44c1.33-2.33,3.61-3.22,3.65-6.64-.33-20.76-.08-42.96-.04-63.44,0-1.23-.25-2.44-.98-3.49-.88-1.27-2.7-.89-2.62-2.3h44Z"/>
    <path d="M542.48,900.29c.08,1.4-1.74,1.03-2.62,2.3-.73,1.05-.98,2.26-.98,3.49-.08,19.94,1.29,45.87.69,66.28l2.91,3.8h-13.47c3.35-2.55,4.63-5.09,4.53-9.34-.21-8.59-.42-58.32-1.14-63.21-.22-1.49-2.03-2.01-2.49-3.33h12.57Z"/>
    <path d="M1205.15,900.29c-.46,1.32-2.18,1.85-2.49,3.33-.94,4.52-1.04,60.4-1.04,68.44,0,1.06.66.91,3.49,4.1h-12.52l2.91-3.8c.71-20.4.71-45.87.69-66.28,0-1.23-.25-2.44-.98-3.49-.88-1.27-2.7-.89-2.62-2.3h12.57Z"/>
  </g>
  <g>
    <path d="M594.08,1007.8c1.18-.23,3.03-.4,4.92-.4,2.69,0,4.42.43,5.72,1.42,1.08.75,1.73,1.91,1.73,3.45,0,1.88-1.33,3.53-3.52,4.29v.06c1.98.46,4.3,2,4.3,4.9,0,1.68-.71,2.96-1.76,3.91-1.45,1.25-3.8,1.82-7.2,1.82-1.85,0-3.28-.12-4.17-.23v-19.21ZM596.77,1015.8h2.44c2.84,0,4.51-1.39,4.51-3.27,0-2.29-1.85-3.19-4.57-3.19-1.24,0-1.95.09-2.38.17v6.29ZM596.77,1025.15c.53.09,1.3.11,2.26.11,2.78,0,5.35-.96,5.35-3.79,0-2.66-2.44-3.77-5.38-3.77h-2.23v7.44Z"/>
    <path d="M616.77,1007.54v19.52h-2.69v-19.52h2.69Z"/>
    <path d="M635.5,1017.91h-8.1v7.04h9.03v2.11h-11.72v-19.52h11.25v2.11h-8.56v6.17h8.1v2.09Z"/>
    <path d="M643.17,1027.06v-19.52h2.94l6.68,9.88c1.55,2.29,2.75,4.35,3.74,6.34l.06-.03c-.25-2.61-.31-4.98-.31-8.02v-8.17h2.53v19.52h-2.72l-6.62-9.91c-1.45-2.17-2.84-4.4-3.9-6.52l-.09.03c.15,2.46.22,4.81.22,8.05v8.34h-2.54Z"/>
    <path d="M676.55,1007.77c1.3-.2,3-.38,5.16-.38,2.66,0,4.61.58,5.84,1.62,1.14.93,1.82,2.35,1.82,4.08s-.56,3.16-1.61,4.17c-1.42,1.42-3.74,2.14-6.37,2.14-.8,0-1.55-.03-2.16-.17v7.82h-2.69v-19.29ZM679.24,1017.19c.59.14,1.33.2,2.23.2,3.25,0,5.22-1.48,5.22-4.17s-1.95-3.82-4.91-3.82c-1.18,0-2.07.09-2.54.2v7.59Z"/>
    <path d="M696.24,1007.54h2.69v17.41h8.9v2.11h-11.59v-19.52Z"/>
    <path d="M715.65,1007.54v11.56c0,4.37,2.07,6.23,4.85,6.23,3.09,0,5.07-1.91,5.07-6.23v-11.56h2.72v11.38c0,6-3.37,8.46-7.88,8.46-4.27,0-7.48-2.29-7.48-8.34v-11.5h2.72Z"/>
    <path d="M735.84,1023.99c1.21.69,2.97,1.27,4.82,1.27,2.75,0,4.36-1.36,4.36-3.33,0-1.82-1.11-2.87-3.93-3.88-3.4-1.13-5.5-2.78-5.5-5.53,0-3.04,2.69-5.3,6.74-5.3,2.13,0,3.68.46,4.61.96l-.74,2.06c-.68-.35-2.07-.93-3.96-.93-2.84,0-3.93,1.59-3.93,2.93,0,1.82,1.27,2.72,4.14,3.77,3.52,1.28,5.32,2.87,5.32,5.74,0,3.01-2.38,5.62-7.3,5.62-2.01,0-4.2-.55-5.32-1.25l.68-2.11Z"/>
    <path d="M781.68,1029.93c-2.81-.7-5.56-1.48-7.98-2.26-.43-.14-.87-.29-1.27-.29-4.95-.17-9.18-3.59-9.18-9.88s4.08-10.28,9.71-10.28,9.33,4.11,9.33,9.88c0,5.01-2.47,8.23-5.94,9.36v.12c2.07.49,4.33.96,6.09,1.24l-.77,2.12ZM779.45,1017.22c0-3.91-2.16-7.94-6.58-7.94s-6.77,3.94-6.74,8.17c-.03,4.14,2.41,7.88,6.62,7.88s6.71-3.65,6.71-8.11Z"/>
    <path d="M791.72,1007.54v11.56c0,4.37,2.07,6.23,4.85,6.23,3.09,0,5.07-1.91,5.07-6.23v-11.56h2.72v11.38c0,6-3.37,8.46-7.88,8.46-4.27,0-7.48-2.29-7.48-8.34v-11.5h2.72Z"/>
    <path d="M815.46,1007.22c-.71,2.43-2.04,5.53-2.91,6.86l-1.73.2c.68-1.71,1.48-4.72,1.82-6.81l2.81-.26Z"/>
    <path d="M824.46,1007.54v11.56c0,4.37,2.07,6.23,4.85,6.23,3.09,0,5.07-1.91,5.07-6.23v-11.56h2.72v11.38c0,6-3.37,8.46-7.88,8.46-4.27,0-7.48-2.29-7.48-8.34v-11.5h2.72Z"/>
    <path d="M845.01,1027.06v-19.52h2.94l6.68,9.88c1.55,2.29,2.75,4.35,3.74,6.34l.06-.03c-.25-2.61-.31-4.98-.31-8.02v-8.17h2.53v19.52h-2.72l-6.62-9.91c-1.45-2.17-2.84-4.4-3.9-6.52l-.09.03c.15,2.46.22,4.81.22,8.05v8.34h-2.54Z"/>
    <path d="M879.38,1017.91h-8.1v7.04h9.03v2.11h-11.72v-19.52h11.25v2.11h-8.56v6.17h8.1v2.09Z"/>
    <path d="M896.85,1007.8c1.18-.23,3.03-.4,4.92-.4,2.69,0,4.42.43,5.72,1.42,1.08.75,1.73,1.91,1.73,3.45,0,1.88-1.33,3.53-3.52,4.29v.06c1.98.46,4.3,2,4.3,4.9,0,1.68-.71,2.96-1.76,3.91-1.45,1.25-3.8,1.82-7.2,1.82-1.85,0-3.28-.12-4.17-.23v-19.21ZM899.54,1015.8h2.44c2.84,0,4.51-1.39,4.51-3.27,0-2.29-1.85-3.19-4.57-3.19-1.24,0-1.95.09-2.38.17v6.29ZM899.54,1025.15c.53.09,1.3.11,2.26.11,2.78,0,5.35-.96,5.35-3.79,0-2.66-2.44-3.77-5.38-3.77h-2.23v7.44Z"/>
    <path d="M934.65,1017.1c0,6.72-4.36,10.28-9.68,10.28s-9.37-4-9.37-9.91c0-6.2,4.11-10.25,9.68-10.25s9.37,4.08,9.37,9.88ZM918.48,1017.42c0,4.17,2.41,7.91,6.65,7.91s6.68-3.68,6.68-8.11c0-3.88-2.16-7.94-6.65-7.94s-6.68,3.85-6.68,8.14Z"/>
    <path d="M944.08,1007.54v11.56c0,4.37,2.07,6.23,4.85,6.23,3.09,0,5.07-1.91,5.07-6.23v-11.56h2.72v11.38c0,6-3.37,8.46-7.88,8.46-4.27,0-7.48-2.29-7.48-8.34v-11.5h2.72Z"/>
    <path d="M964.63,1007.54h2.69v17.41h8.9v2.11h-11.59v-19.52Z"/>
    <path d="M985.84,1020.92l-2.16,6.14h-2.78l7.08-19.52h3.25l7.11,19.52h-2.88l-2.23-6.14h-7.39ZM992.67,1018.95l-2.04-5.62c-.46-1.28-.77-2.43-1.08-3.56h-.06c-.31,1.16-.65,2.35-1.05,3.53l-2.04,5.65h6.28Z"/>
    <path d="M1004.63,1027.06v-19.52h2.94l6.68,9.88c1.55,2.29,2.75,4.35,3.74,6.34l.06-.03c-.25-2.61-.31-4.98-.31-8.02v-8.17h2.53v19.52h-2.72l-6.62-9.91c-1.45-2.17-2.84-4.4-3.9-6.52l-.09.03c.15,2.46.22,4.81.22,8.05v8.34h-2.54Z"/>
    <path d="M1044.07,1026.2c-1.2.4-3.59,1.07-6.4,1.07-3.15,0-5.75-.75-7.79-2.58-1.79-1.62-2.91-4.23-2.91-7.27.03-5.82,4.3-10.08,11.28-10.08,2.41,0,4.3.49,5.19.9l-.65,2.06c-1.11-.46-2.5-.84-4.61-.84-5.07,0-8.38,2.96-8.38,7.85s3.18,7.88,8.04,7.88c1.76,0,2.97-.23,3.59-.52v-5.82h-4.24v-2.03h6.86v9.39Z"/>
    <path d="M1062.22,1017.91h-8.1v7.04h9.03v2.11h-11.72v-19.52h11.25v2.11h-8.56v6.17h8.1v2.09Z"/>
    <path d="M1069.88,1007.8c1.36-.26,3.31-.4,5.16-.4,2.88,0,4.73.49,6.03,1.59,1.05.87,1.64,2.2,1.64,3.71,0,2.58-1.73,4.29-3.93,4.98v.09c1.61.52,2.57,1.91,3.06,3.94.68,2.72,1.18,4.61,1.61,5.36h-2.78c-.34-.55-.8-2.23-1.39-4.66-.62-2.69-1.73-3.71-4.17-3.79h-2.54v8.46h-2.69v-19.26ZM1072.57,1016.69h2.75c2.87,0,4.7-1.48,4.7-3.71,0-2.52-1.95-3.62-4.79-3.65-1.3,0-2.23.11-2.66.23v7.13Z"/>
    <path d="M1092.45,1007.54v19.52h-2.69v-19.52h2.69Z"/>
    <path d="M1111.18,1017.91h-8.1v7.04h9.03v2.11h-11.72v-19.52h11.25v2.11h-8.56v6.17h8.1v2.09Z"/>
  </g>
</svg>