<?xml version="1.0" encoding="UTF-8"?>
<svg id="Design" xmlns="http://www.w3.org/2000/svg" version="1.1" viewBox="0 0 966.2 376.9">
  <!-- Generator: Adobe Illustrator 30.4.0, SVG Export Plug-In . SVG Version: 2.1.4 Build 226)  -->
  <g>
    <path d="M616.9,0v1.8h-17.5c-.3,0-5,1.9-5.8,2.3-6.3,3.5-8.1,11.2-9,17.8-.6,51.3-.6,102.2,0,152.7,0,6.7,2.4,15.4,8.7,19,1,.5,7.3,2.8,8,2.8h16.6v.9h-89.8v-.9h15.7c3.6,0,10.2-3.4,12.6-6.2,2.2-2.6,4.9-9.8,4.9-13V3.6l-68,101.5,33.9,51.6v40.6l-2.5-1.5L399.4,8.6c-2.6-2.8-10.1-6.8-13.8-6.8h-20.2V0h56.1l70,103.5L561.6,0h55.2Z"/>
    <polygon points="485.8 197.2 483.7 196.1 388.8 54.9 388.8 18.7 391.4 20.2 485.8 161.1 485.8 197.2"/>
    <path d="M442.7,323.1c3.4-3.3,5.2-3.2,5.4-8.4.8-18.8.3-39.7,0-60.8,0-1.4-.4-2.9-1.4-4-1.3-1.5-3.7-1-4-2.7h10.4c0,0,33.2,67,33.2,67l28-67h9.3s-3.6,6.7-3.6,6.7c0,19.7,0,41.7,0,60.8,0,4.2,1.4,5.8,4.5,8.4h-13.5c.4-1.3,3.6-3.8,3.6-4.9v-66.5l-29.6,70.5-35-69.6v64.7c0,2,6,5,5.4,5.8h-12.6,0Z"/>
    <path d="M0,323.1c1.3-1.9,4-2.6,5.3-5,.9-1.7,1.1-2.5,1.1-4.3,0-19,0-38.5,0-59,0-1.5-.6-2.7-1.4-4-1.3-1.9-3.3-1.9-4-3.6h9.5c0,0,33.2,66,33.2,66l28.4-66h9.8c0,1.3-1.7.9-2.6,2.2-.7,1-1,2.3-1,3.5-.2,21.7-.5,43.2,0,63.4-.6,3.2,2.3,4.3,3.6,6.6h-13.5c1-1.7,4.5-4.7,4.5-6.7v-64.7l-31,70.5L7.2,251.7v64.7c0,.2,1.8,3.4,2.1,3.8,1.3,1.3,4.2,1.5,4.2,3H0Z"/>
    <path d="M721,322.2c6-3.2,11.3-3.6,16.5-9,27.1-28.2-5.8-82.2-39.3-60.5-28.6,18.6-13.1,71.3,22.7,69.5-.3.2-2,1.2-1.8,1.8,10.6,3.9,18.2,13.6,30.5,8-.8,2.4-3.3,4.8-5.9,5.3-14.9,2.7-19.1-15.2-34-13.3-2.9.4-4.9,2.2-7.7,2.6l6.3-4.4c-32-5.5-42.7-47.3-17-67.3,29.8-23.2,71.7,5.1,60.7,41.6-4,13.1-17.2,25-31.2,25.7h0Z"/>
    <path d="M645.2,247.2c26.3,3.2,30.6,36.2,2.7,44.6-1,.3-1.6-.6-1.3,1.3,7.8,9.8,12.4,22.1,22.4,29.9l-9.4-.9h0l-19.8-29.5h-15.4c-.5,0-.9.2-1.2.5l-.3.3c-.3.3-.5.8-.5,1.2v20.7c0,2.6,3,5.6,4.5,7.6h-13.5c.7-1.8,2.6-2.4,3.4-4.2,2.1-5.2,1.9-54.2,1.1-62.2-.2-1.7-.8-5.1-1.6-6.5,0,0,0,0,0,0-.7-1.2.1-2.6,1.5-2.6,9,.2,19.1-1.3,27.5-.2h0ZM623.1,248.6l-.3.3c-.3.3-.5.8-.5,1.2v39.6c0,.5.2.9.5,1.2l.3.3c.3.3.8.5,1.2.5h17.2c1.8,0,7.9-2.5,9.7-3.7,13.1-8.5,11.7-31.8-3-37.8-1.2-.5-6.8-2.2-7.6-2.2h-16.3c-.5,0-.9.2-1.2.5h0Z"/>
    <path d="M300.8,322c-4.4.3-8.4.3-12.8-.6-4.3-.9-8.5-2.5-12.4-4.7-6-3.4-11.2-8.5-14.5-14.5-3.9-7.1-5.2-15.3-4.2-23.2,3.8-29.4,40.2-42.2,62.8-23.2,9.9,8.2,14.8,20.9,13.3,33.6-1.5,12.1-8.7,23.3-19.7,29-3.9,2-8.1,3.3-12.5,3.7,16.7-3.5,26.1-19.3,26-35.5,0-1.6-.1-3.3-.3-4.9-1.4-11.1-7-21.8-16.2-28.1s-22.2-7.5-31.8-1.7c-9.7,5.8-14.6,17.4-15.2,28.5-.6,11,2.7,22.2,9.8,30.6,3,3.5,6.6,6.4,10.8,8.2,5.4,2.3,11.3,2.5,17.2,2.8,0,0-.2,0-.2,0h0Z"/>
    <path d="M860.2,303.5l5,8.9c9.4,16.1,46,11.9,39.5-9.8-4.3-14.3-43.3-16.3-42.7-38.8.4-16.5,18.7-21.4,32.1-16.7,3.7,1.3,8,6.1,11.4,3.7,1.3-.9.9-2.7,2.3-2.6v14.3l-6.4-9.3c-11.2-10.9-37.6-8.8-34.8,10.5,2.1,14.7,35.3,17.5,41.6,34.5,5.6,14.9-9.4,26.4-23.3,25.9-6.1-.2-15.8-5.3-19.8-5.3-2.1,0-3.2,1.8-4.9,2.6v-17.8h0Z"/>
    <path d="M244.2,249l.9,12.5-9.6-10.6c-10.3-7.7-32.6-5.5-32.6,10.1,0,18.9,41.2,19.8,43.1,41,1.7,18.6-17.8,24.1-33,20.3-3-.8-7.3-3.3-10-3.5s-3.3,1.7-5.6,1.6l-.9-17c3.2,3.8,4.8,9.1,8.5,12.5,10.7,9.8,36.8,8.3,37.3-8.5.6-20.2-45.9-19-43.1-45.5,1.6-15.2,17.6-19.1,30.5-15.2,5.7,1.7,9.5,7.8,14.4,2.2h0Z"/>
    <path d="M854.8,220.5l-10.8,1.3c-32.1,10.3-21.3,51.3-23.3,76.8-1,12.8-6.3,23.3-20.2,24.5-45.2,3.9-26.9-43.7-31.1-70-.4-2.8-2.2-3.7-3.5-5.8h12.6c-.2,1.5-2,1-2.9,2.9-.6,1.2-.6,2.5-.7,3.8-1.1,11.7-1,34.7,0,46.5.8,8.7,4.8,16.7,13.5,19.6,13.3,4.5,28-1.8,30.3-16.2,3.5-22.1-8.2-68.3,16.7-80.7.8-.4,6.1-2.5,6.4-2.5h13Z"/>
    <path d="M396,310.6v-56.7c0-.5-1.6-3.5-2.2-4.1-1.1-1.3-3.1-1.2-3.2-2.6h11.7c-.9,1.5-5.4,3.8-5.4,5.8v69.2l-50.3-70.5v64.7c0,.7,2.8,3.7,3.5,4.5,1.1,1.1,3,.9,2.7,2.2h-12.6c3.4-3.3,5.5-3.2,5.4-8.4,0-14.1-.3-45.1,0-59.8,0-1.5-.5-3.7-1.4-4.9-1.3-1.7-3.7-1-4-2.7,4,.5,9.2-1.5,12.2,1.7l43.5,61.6h0Z"/>
    <path d="M158,323.1h-14.4c.4-1.6,2.5-2.3,3.1-3.6,2.1-4.5-6.8-20.5-7.5-26.2l-28.7-.4c-1.4,9.8-14.1,23-2.8,30.2h-13.5l6.3-7.6,26.5-69.2,26.3,70.2,4.6,6.5h0ZM111.3,291h26l-12.1-33.9-13.9,33.9Z"/>
    <path d="M537,323.1l5.8-7.2,26-68.7c1.8-.4,1.4.7,1.8,1.8,7.6,21.8,16.3,46,24.6,66.7,1.3,3.3,3.5,4.7,5.6,7.4h-14.4c1.4-2.3,3.7-3.4,3.4-6.5-.2-2-7.7-22.8-8.8-23.5h-27.9c-1.8,6.8-10.2,20-7,25.8,1.2,2.3,3.4,2.3,4.4,4.1h-13.5,0ZM580.1,291l-13-34.8-13,34.8h26Z"/>
    <path d="M964.4,247.2l1.8,8.9c-2.4-3-8.1-8-12.1-8h-24.7v35.7h18.4c.3,0,3.2-1.4,3.6-1.7,1-.8,1.2-3.6,2.2-2.3v8.5c-.2.3-4.2-3.6-5.8-3.6h-18.4v36.6h26.5c.9,0,5.2-2.7,6.3-3.6,1.8-1.5,2.4-3.3,4.1-4.4l-1.8,9.8h-44c1.3-2.3,3.6-3.2,3.7-6.6-.3-20.8,0-43,0-63.4,0-1.2-.2-2.4-1-3.5-.9-1.3-2.7-.9-2.6-2.3h44,0Z"/>
    <path d="M184.1,247.2c0,1.4-1.7,1-2.6,2.3-.7,1-1,2.3-1,3.5,0,19.9,1.3,45.9.7,66.3l2.9,3.8h-13.5c3.3-2.5,4.6-5.1,4.5-9.3-.2-8.6-.4-58.3-1.1-63.2-.2-1.5-2-2-2.5-3.3h12.6,0Z"/>
    <path d="M846.7,247.2c-.5,1.3-2.2,1.8-2.5,3.3-.9,4.5-1,60.4-1,68.4s.7.9,3.5,4.1h-12.5l2.9-3.8c.7-20.4.7-45.9.7-66.3,0-1.2-.2-2.4-1-3.5-.9-1.3-2.7-.9-2.6-2.3h12.6,0Z"/>
  </g>
  <g>
    <path d="M235.7,354.8c1.2-.2,3-.4,4.9-.4,2.7,0,4.4.4,5.7,1.4,1.1.8,1.7,1.9,1.7,3.5s-1.3,3.5-3.5,4.3h0c2,.5,4.3,2.1,4.3,5s-.7,3-1.8,3.9c-1.5,1.2-3.8,1.8-7.2,1.8s-3.3-.1-4.2-.2v-19.2h0ZM238.4,362.8h2.4c2.8,0,4.5-1.4,4.5-3.3s-1.8-3.2-4.6-3.2-2,0-2.4.2v6.3h0ZM238.4,372.1c.5,0,1.3.1,2.3.1,2.8,0,5.3-1,5.3-3.8s-2.4-3.8-5.4-3.8h-2.2v7.4h0Z"/>
    <path d="M258.4,354.5v19.5h-2.7v-19.5h2.7Z"/>
    <path d="M277.1,364.9h-8.1v7h9v2.1h-11.7v-19.5h11.2v2.1h-8.6v6.2h8.1v2.1h0Z"/>
    <path d="M284.8,374v-19.5h2.9l6.7,9.9c1.5,2.3,2.8,4.3,3.7,6.3h0c-.2-2.6-.3-5-.3-8.1v-8.2h2.5v19.5h-2.7l-6.6-9.9c-1.5-2.2-2.8-4.4-3.9-6.5h0c.2,2.5.2,4.8.2,8.1v8.3h-2.5,0Z"/>
    <path d="M318.1,354.7c1.3-.2,3-.4,5.2-.4s4.6.6,5.8,1.6c1.1.9,1.8,2.3,1.8,4.1s-.6,3.2-1.6,4.2c-1.4,1.4-3.7,2.1-6.4,2.1s-1.5,0-2.2-.2v7.8h-2.7v-19.3h0ZM320.8,364.1c.6.1,1.3.2,2.2.2,3.2,0,5.2-1.5,5.2-4.2s-2-3.8-4.9-3.8-2.1,0-2.5.2v7.6h0Z"/>
    <path d="M337.8,354.5h2.7v17.4h8.9v2.1h-11.6v-19.5h0Z"/>
    <path d="M357.2,354.5v11.6c0,4.4,2.1,6.2,4.8,6.2s5.1-1.9,5.1-6.2v-11.6h2.7v11.4c0,6-3.4,8.5-7.9,8.5s-7.5-2.3-7.5-8.3v-11.5h2.7Z"/>
    <path d="M377.4,370.9c1.2.7,3,1.3,4.8,1.3,2.8,0,4.4-1.4,4.4-3.3s-1.1-2.9-3.9-3.9c-3.4-1.1-5.5-2.8-5.5-5.5s2.7-5.3,6.7-5.3,3.7.5,4.6,1l-.7,2.1c-.7-.3-2.1-.9-4-.9-2.8,0-3.9,1.6-3.9,2.9s1.3,2.7,4.1,3.8c3.5,1.3,5.3,2.9,5.3,5.7s-2.4,5.6-7.3,5.6-4.2-.6-5.3-1.2l.7-2.1h0Z"/>
    <path d="M423.3,376.9c-2.8-.7-5.6-1.5-8-2.3-.4-.1-.9-.3-1.3-.3-5-.2-9.2-3.6-9.2-9.9s4.1-10.3,9.7-10.3,9.3,4.1,9.3,9.9-2.5,8.2-5.9,9.4h0c2.1.6,4.3,1.1,6.1,1.4l-.8,2.1h0ZM421,364.2c0-3.9-2.2-7.9-6.6-7.9s-6.8,3.9-6.7,8.2c0,4.1,2.4,7.9,6.6,7.9s6.7-3.7,6.7-8.1h0Z"/>
    <path d="M433.3,354.5v11.6c0,4.4,2.1,6.2,4.8,6.2s5.1-1.9,5.1-6.2v-11.6h2.7v11.4c0,6-3.4,8.5-7.9,8.5s-7.5-2.3-7.5-8.3v-11.5h2.7Z"/>
    <path d="M457.1,354.2c-.7,2.4-2,5.5-2.9,6.9l-1.7.2c.7-1.7,1.5-4.7,1.8-6.8l2.8-.3h0Z"/>
    <path d="M466.1,354.5v11.6c0,4.4,2.1,6.2,4.8,6.2s5.1-1.9,5.1-6.2v-11.6h2.7v11.4c0,6-3.4,8.5-7.9,8.5s-7.5-2.3-7.5-8.3v-11.5h2.7Z"/>
    <path d="M486.6,374v-19.5h2.9l6.7,9.9c1.5,2.3,2.8,4.3,3.7,6.3h0c-.2-2.6-.3-5-.3-8.1v-8.2h2.5v19.5h-2.7l-6.6-9.9c-1.5-2.2-2.8-4.4-3.9-6.5h0c.2,2.5.2,4.8.2,8.1v8.3h-2.5,0Z"/>
    <path d="M521,364.9h-8.1v7h9v2.1h-11.7v-19.5h11.2v2.1h-8.6v6.2h8.1v2.1h0Z"/>
    <path d="M538.4,354.8c1.2-.2,3-.4,4.9-.4,2.7,0,4.4.4,5.7,1.4,1.1.8,1.7,1.9,1.7,3.5s-1.3,3.5-3.5,4.3h0c2,.5,4.3,2.1,4.3,5s-.7,3-1.8,3.9c-1.5,1.2-3.8,1.8-7.2,1.8s-3.3-.1-4.2-.2v-19.2h0ZM541.1,362.8h2.4c2.8,0,4.5-1.4,4.5-3.3s-1.8-3.2-4.6-3.2-2,0-2.4.2v6.3h0ZM541.1,372.1c.5,0,1.3.1,2.3.1,2.8,0,5.3-1,5.3-3.8s-2.4-3.8-5.4-3.8h-2.2v7.4h0Z"/>
    <path d="M576.2,364c0,6.7-4.4,10.3-9.7,10.3s-9.4-4-9.4-9.9,4.1-10.2,9.7-10.2,9.4,4.1,9.4,9.9h0ZM560.1,364.4c0,4.2,2.4,7.9,6.7,7.9s6.7-3.7,6.7-8.1-2.2-7.9-6.7-7.9-6.7,3.8-6.7,8.1Z"/>
    <path d="M585.7,354.5v11.6c0,4.4,2.1,6.2,4.8,6.2s5.1-1.9,5.1-6.2v-11.6h2.7v11.4c0,6-3.4,8.5-7.9,8.5s-7.5-2.3-7.5-8.3v-11.5h2.7Z"/>
    <path d="M606.2,354.5h2.7v17.4h8.9v2.1h-11.6v-19.5h0Z"/>
    <path d="M627.4,367.9l-2.2,6.1h-2.8l7.1-19.5h3.2l7.1,19.5h-2.9l-2.2-6.1h-7.4ZM634.3,365.9l-2-5.6c-.5-1.3-.8-2.4-1.1-3.6h0c-.3,1.2-.7,2.3-1,3.5l-2,5.7h6.3,0Z"/>
    <path d="M646.2,374v-19.5h2.9l6.7,9.9c1.5,2.3,2.8,4.3,3.7,6.3h0c-.2-2.6-.3-5-.3-8.1v-8.2h2.5v19.5h-2.7l-6.6-9.9c-1.5-2.2-2.8-4.4-3.9-6.5h0c.2,2.5.2,4.8.2,8.1v8.3h-2.5,0Z"/>
    <path d="M685.7,373.1c-1.2.4-3.6,1.1-6.4,1.1s-5.8-.8-7.8-2.6c-1.8-1.6-2.9-4.2-2.9-7.3,0-5.8,4.3-10.1,11.3-10.1s4.3.5,5.2.9l-.7,2.1c-1.1-.5-2.5-.8-4.6-.8-5.1,0-8.4,3-8.4,7.8s3.2,7.9,8,7.9,3-.2,3.6-.5v-5.8h-4.2v-2h6.9v9.4h0Z"/>
    <path d="M703.8,364.9h-8.1v7h9v2.1h-11.7v-19.5h11.2v2.1h-8.6v6.2h8.1v2.1h0Z"/>
    <path d="M711.5,354.8c1.4-.3,3.3-.4,5.2-.4,2.9,0,4.7.5,6,1.6,1.1.9,1.6,2.2,1.6,3.7,0,2.6-1.7,4.3-3.9,5h0c1.6.6,2.6,2,3.1,4,.7,2.7,1.2,4.6,1.6,5.4h-2.8c-.3-.6-.8-2.2-1.4-4.7-.6-2.7-1.7-3.7-4.2-3.8h-2.5v8.5h-2.7v-19.3h0ZM714.2,363.6h2.8c2.9,0,4.7-1.5,4.7-3.7s-1.9-3.6-4.8-3.7c-1.3,0-2.2.1-2.7.2v7.1h0Z"/>
    <path d="M734,354.5v19.5h-2.7v-19.5h2.7Z"/>
    <path d="M752.8,364.9h-8.1v7h9v2.1h-11.7v-19.5h11.2v2.1h-8.6v6.2h8.1v2.1h0Z"/>
  </g>
</svg>