<?xml version="1.0" encoding="UTF-8"?>
<svg id="Design" xmlns="http://www.w3.org/2000/svg" viewBox="0 0 1682.98 1682.98">
  <g>
    <path d="M789.6,872.87c4.33-4.24,6.67-4.13,6.97-10.84,1.09-24.16.42-51.04-.03-78.03-.1-1.84-.55-3.69-1.78-5.11-1.69-1.94-4.75-1.35-5.16-3.46l13.3-.1,42.62,86.07,35.91-86.02,11.95.04-4.64,8.56c0,25.24-.08,53.5-.04,78.03.01,5.41,1.84,7.52,5.83,10.83h-17.3c.53-1.68,4.61-4.91,4.61-6.3v-85.4l-38.07,90.56-44.96-89.41v83.11c0,2.6,7.77,6.39,6.92,7.45h-16.15Z"/>
    <path d="M221.06,872.87c1.71-2.48,5.18-3.34,6.77-6.45,1.12-2.18,1.36-3.19,1.36-5.53-.07-24.42-.01-49.41-.03-75.74.02-1.99-.73-3.49-1.8-5.09-1.63-2.46-4.2-2.5-5.14-4.62l12.15-.1,42.64,84.92,36.44-84.7,12.55-.12c.1,1.79-2.23,1.31-3.36,2.94-.94,1.35-1.24,2.9-1.26,4.48-.31,27.91-.64,55.43-.05,81.48-.79,4.12,2.98,5.54,4.68,8.53h-17.3c1.27-2.23,5.77-5.97,5.77-8.6v-83.11l-39.79,90.57-44.4-90.57v83.11c0,.27,2.27,4.4,2.66,4.81,1.64,1.73,5.46,1.86,5.41,3.79h-17.3Z"/>
    <path d="M1147.1,871.73c7.7-4.14,14.51-4.61,21.21-11.58,34.76-36.15-7.46-105.57-50.42-77.64-36.7,23.86-16.82,91.58,29.21,89.22-.36.19-2.62,1.61-2.3,2.28,13.64,5.03,23.41,17.5,39.2,10.34-1.02,3.07-4.3,6.21-7.55,6.81-19.08,3.51-24.5-19.45-43.67-17.03-3.74.47-6.36,2.83-9.9,3.32l8.07-5.71c-41.1-7.05-54.89-60.7-21.8-86.46,38.22-29.76,92.14,6.52,77.99,53.45-5.08,16.85-22.07,32.08-40.03,33Z"/>
    <path d="M1049.65,775.43c33.78,4.18,39.26,46.56,3.42,57.29-1.28.38-2.06-.79-1.68,1.72,9.99,12.53,15.96,28.34,28.82,38.41l-12.1-1.14h0s-25.38-37.82-25.38-37.82c0,0,0,0,0,0h-19.83c-.59,0-1.16.23-1.58.65l-.42.42c-.42.42-.65.98-.65,1.57v26.59c0,3.38,3.86,7.19,5.76,9.74,0,0,0,0,0,0h-17.29c.94-2.25,3.32-3.03,4.31-5.46,2.71-6.67,2.48-69.55,1.44-79.93-.21-2.13-1.06-6.59-2-8.33-.01-.02-.03-.05-.04-.07-.86-1.52.17-3.39,1.92-3.37,11.6.19,24.52-1.61,35.3-.28ZM1021.32,777.23l-.42.42c-.42.42-.65.98-.65,1.57v50.89c0,.59.24,1.15.65,1.57l.42.42c.42.42.99.65,1.58.65h22.14c2.38,0,10.17-3.26,12.49-4.78,16.82-10.97,14.96-40.87-3.86-48.51-1.57-.64-8.73-2.88-9.79-2.88h-20.99c-.59,0-1.16.23-1.58.65Z"/>
    <path d="M607.36,871.47c-5.6.42-10.83.36-16.45-.82-5.57-1.17-10.99-3.17-15.93-5.98-7.76-4.41-14.34-10.86-18.66-18.65-5.04-9.08-6.74-19.62-5.4-29.87,4.93-37.72,51.61-54.16,80.71-29.84,12.66,10.58,19.04,26.85,17.04,43.16-1.91,15.55-11.18,29.96-25.25,37.28-5.01,2.61-10.43,4.31-16.09,4.72,21.43-4.54,33.5-24.74,33.34-45.56-.02-2.1-.15-4.21-.41-6.29-1.75-14.21-8.99-28.05-20.87-36.13-11.88-8.09-28.5-9.58-40.83-2.19-12.4,7.43-18.73,22.29-19.46,36.66-.72,14.06,3.41,28.57,12.59,39.3,3.81,4.45,8.49,8.24,13.88,10.56,6.91,2.97,14.57,3.23,22.09,3.62-.09,0-.19.03-.29.04Z"/>
    <path d="M1325.85,847.65l6.42,11.39c12.04,20.71,59.05,15.24,50.72-12.59-5.51-18.4-55.59-20.99-54.86-49.77.54-21.21,23.95-27.43,41.22-21.5,4.71,1.62,10.26,7.89,14.65,4.72,1.63-1.17,1.2-3.41,2.98-3.34v18.34l-8.2-11.91c-14.45-13.96-48.34-11.35-44.74,13.53,2.74,18.93,45.37,22.54,53.48,44.27,7.16,19.18-12.06,33.86-29.89,33.25-7.83-.27-20.25-6.87-25.46-6.8-2.7.03-4.14,2.36-6.32,3.33v-22.93Z"/>
    <path d="M534.73,777.73l1.16,16.04-12.3-13.56c-13.19-9.95-41.87-7.03-41.89,12.99-.02,24.22,52.94,25.46,55.4,52.67,2.16,23.91-22.81,30.94-42.32,26.03-3.89-.98-9.38-4.24-12.8-4.55-3.28-.3-4.28,2.12-7.2,2.08l-1.15-21.77c4.05,4.88,6.19,11.65,10.95,16.04,13.68,12.63,47.23,10.63,47.9-10.92.81-25.98-58.96-24.4-55.41-58.43,2.04-19.56,22.65-24.5,39.21-19.48,7.33,2.22,12.24,10.04,18.44,2.87Z"/>
    <path d="M1318.93,741.04l-13.9,1.66c-41.25,13.23-27.32,65.95-29.88,98.69-1.28,16.38-8.11,29.97-25.95,31.52-58.05,5.04-34.5-56.17-39.89-89.96-.57-3.59-2.85-4.79-4.55-7.52h16.15c-.22,1.98-2.61,1.33-3.79,3.69-.78,1.57-.72,3.18-.88,4.86-1.41,15.01-1.29,44.6.01,59.7.96,11.16,6.21,21.39,17.37,25.14,17.08,5.74,35.98-2.25,38.9-20.88,4.45-28.37-10.6-87.75,21.4-103.68,1.07-.53,7.84-3.23,8.28-3.23h16.72Z"/>
    <path d="M729.63,856.82v-72.79c0-.66-2.1-4.43-2.79-5.25-1.37-1.63-3.98-1.48-4.12-3.33h14.98c-1.21,1.89-6.91,4.87-6.91,7.44v88.84l-64.58-90.56v83.11c0,.93,3.53,4.8,4.56,5.79,1.45,1.39,3.82,1.21,3.51,2.81h-16.15c4.33-4.24,6.99-4.12,6.97-10.84-.05-18.07-.35-57.93-.06-76.86.03-1.87-.67-4.81-1.78-6.25-1.63-2.12-4.74-1.3-5.13-3.48,5.09.63,11.88-1.92,15.62,2.23l55.88,79.15Z"/>
    <path d="M424.03,872.87h-18.45c.48-2.03,3.24-2.9,4.03-4.61,2.7-5.82-8.7-26.39-9.67-33.68l-36.87-.52c-1.79,12.64-18.14,29.48-3.62,38.82h-17.3l8.08-9.73,34.01-88.86,33.81,90.21,5.98,8.39ZM364.06,831.6h33.44l-15.58-43.57-17.86,43.57Z"/>
    <path d="M910.69,872.87l7.49-9.18,33.46-88.27c2.35-.48,1.75.86,2.25,2.29,9.73,27.94,20.91,59.14,31.54,85.63,1.71,4.27,4.45,6.09,7.14,9.53h-18.45c1.75-2.96,4.76-4.33,4.4-8.31-.23-2.5-9.93-29.24-11.27-30.14h-35.84c-2.38,8.67-13.04,25.63-9.02,33.14,1.56,2.92,4.35,2.99,5.61,5.3h-17.3ZM966.04,831.6l-16.72-44.72-16.72,44.72h33.44Z"/>
    <path d="M1459.62,775.43l2.29,11.46c-3.13-3.84-10.35-10.32-15.56-10.32h-31.71v45.85h23.64c.38,0,4.05-1.76,4.67-2.24,1.26-.98,1.48-4.65,2.83-2.92l-.02,10.89c-.26.35-5.32-4.59-7.48-4.59h-23.64v47h34.02c1.21,0,6.7-3.52,8.04-4.62,2.37-1.93,3.09-4.23,5.21-5.7l-2.29,12.6h-56.51c1.71-2.99,4.64-4.14,4.68-8.53-.42-26.66-.1-55.18-.05-81.48,0-1.58-.32-3.13-1.26-4.48-1.14-1.63-3.47-1.15-3.37-2.95h56.51Z"/>
    <path d="M457.47,775.43c.1,1.8-2.23,1.32-3.37,2.95-.94,1.35-1.25,2.9-1.26,4.48-.1,25.61,1.65,58.91.89,85.13l3.74,4.88h-17.3c4.31-3.27,5.95-6.54,5.81-11.99-.27-11.04-.54-74.9-1.46-81.18-.28-1.92-2.6-2.58-3.2-4.27h16.15Z"/>
    <path d="M1308.55,775.43c-.6,1.69-2.8,2.37-3.2,4.27-1.21,5.81-1.33,77.58-1.34,87.9,0,1.36.85,1.17,4.48,5.26h-16.08l3.74-4.88c.91-26.2.91-58.91.89-85.13,0-1.58-.32-3.13-1.26-4.48-1.14-1.63-3.47-1.15-3.37-2.95h16.15Z"/>
  </g>
  <g>
    <path d="M523.74,913.51c1.51-.3,3.89-.52,6.31-.52,3.45,0,5.68.56,7.34,1.82,1.39.97,2.22,2.45,2.22,4.43,0,2.42-1.71,4.54-4.53,5.51v.07c2.54.6,5.52,2.57,5.52,6.29,0,2.16-.91,3.8-2.26,5.02-1.87,1.6-4.88,2.34-9.25,2.34-2.38,0-4.21-.15-5.36-.3v-24.67ZM527.19,923.78h3.14c3.65,0,5.8-1.79,5.8-4.2,0-2.94-2.38-4.09-5.88-4.09-1.59,0-2.5.11-3.06.22v8.07ZM527.19,935.8c.68.11,1.67.15,2.9.15,3.57,0,6.87-1.23,6.87-4.87,0-3.42-3.13-4.84-6.91-4.84h-2.86v9.56Z"/>
    <path d="M552.88,913.18v25.07h-3.45v-25.07h3.45Z"/>
    <path d="M576.94,926.5h-10.4v9.04h11.59v2.72h-15.05v-25.07h14.45v2.72h-11v7.92h10.4v2.68Z"/>
    <path d="M586.78,938.25v-25.07h3.77l8.58,12.69c1.99,2.94,3.53,5.58,4.8,8.15l.08-.04c-.32-3.35-.4-6.4-.4-10.3v-10.49h3.25v25.07h-3.49l-8.5-12.72c-1.87-2.79-3.65-5.65-5-8.37l-.12.04c.2,3.16.28,6.17.28,10.34v10.71h-3.26Z"/>
    <path d="M629.65,913.48c1.67-.26,3.85-.48,6.63-.48,3.41,0,5.92.74,7.5,2.08,1.47,1.19,2.34,3.01,2.34,5.25s-.72,4.05-2.07,5.36c-1.83,1.82-4.8,2.75-8.18,2.75-1.03,0-1.99-.04-2.78-.22v10.04h-3.45v-24.78ZM633.11,925.57c.75.19,1.71.26,2.86.26,4.17,0,6.71-1.9,6.71-5.36s-2.5-4.91-6.31-4.91c-1.51,0-2.66.11-3.26.26v9.75Z"/>
    <path d="M654.94,913.18h3.45v22.36h11.44v2.72h-14.89v-25.07Z"/>
    <path d="M679.87,913.18v14.84c0,5.62,2.66,8,6.23,8,3.97,0,6.51-2.46,6.51-8v-14.84h3.49v14.62c0,7.7-4.33,10.86-10.13,10.86-5.48,0-9.61-2.94-9.61-10.71v-14.77h3.49Z"/>
    <path d="M705.8,934.31c1.55.89,3.81,1.64,6.19,1.64,3.53,0,5.6-1.75,5.6-4.28,0-2.34-1.43-3.68-5.04-4.99-4.37-1.45-7.07-3.57-7.07-7.1,0-3.91,3.45-6.81,8.65-6.81,2.74,0,4.73.6,5.92,1.23l-.95,2.64c-.87-.45-2.66-1.19-5.08-1.19-3.65,0-5.04,2.05-5.04,3.76,0,2.34,1.63,3.5,5.32,4.84,4.53,1.64,6.83,3.68,6.83,7.37,0,3.87-3.06,7.22-9.37,7.22-2.58,0-5.4-.71-6.83-1.6l.87-2.72Z"/>
    <path d="M764.67,941.94c-3.61-.89-7.15-1.9-10.24-2.9-.56-.19-1.11-.37-1.63-.37-6.35-.22-11.79-4.61-11.79-12.69s5.24-13.21,12.47-13.21,11.99,5.28,11.99,12.69c0,6.44-3.17,10.57-7.62,12.02v.15c2.66.63,5.56,1.23,7.82,1.6l-.99,2.72ZM761.81,925.6c0-5.02-2.78-10.2-8.46-10.2s-8.69,5.06-8.65,10.49c-.04,5.32,3.1,10.12,8.5,10.12s8.61-4.69,8.61-10.42Z"/>
    <path d="M777.57,913.18v14.84c0,5.62,2.66,8,6.23,8,3.97,0,6.51-2.46,6.51-8v-14.84h3.49v14.62c0,7.7-4.33,10.86-10.13,10.86-5.48,0-9.61-2.94-9.61-10.71v-14.77h3.49Z"/>
    <path d="M808.06,912.77c-.91,3.12-2.62,7.1-3.73,8.82l-2.22.26c.87-2.2,1.91-6.07,2.34-8.74l3.61-.33Z"/>
    <path d="M819.61,913.18v14.84c0,5.62,2.66,8,6.23,8,3.97,0,6.51-2.46,6.51-8v-14.84h3.49v14.62c0,7.7-4.33,10.86-10.13,10.86-5.48,0-9.61-2.94-9.61-10.71v-14.77h3.49Z"/>
    <path d="M846.01,938.25v-25.07h3.77l8.58,12.69c1.99,2.94,3.53,5.58,4.8,8.15l.08-.04c-.32-3.35-.4-6.4-.4-10.3v-10.49h3.25v25.07h-3.49l-8.5-12.72c-1.87-2.79-3.65-5.65-5-8.37l-.12.04c.2,3.16.28,6.17.28,10.34v10.71h-3.26Z"/>
    <path d="M890.16,926.5h-10.4v9.04h11.59v2.72h-15.05v-25.07h14.45v2.72h-11v7.92h10.4v2.68Z"/>
    <path d="M912.59,913.51c1.51-.3,3.89-.52,6.31-.52,3.45,0,5.68.56,7.34,1.82,1.39.97,2.22,2.45,2.22,4.43,0,2.42-1.71,4.54-4.53,5.51v.07c2.54.6,5.52,2.57,5.52,6.29,0,2.16-.91,3.8-2.26,5.02-1.87,1.6-4.88,2.34-9.25,2.34-2.38,0-4.21-.15-5.36-.3v-24.67ZM916.04,923.78h3.14c3.65,0,5.8-1.79,5.8-4.2,0-2.94-2.38-4.09-5.88-4.09-1.59,0-2.5.11-3.06.22v8.07ZM916.04,935.8c.68.11,1.67.15,2.9.15,3.57,0,6.87-1.23,6.87-4.87,0-3.42-3.13-4.84-6.91-4.84h-2.86v9.56Z"/>
    <path d="M961.14,925.46c0,8.63-5.6,13.21-12.43,13.21s-12.03-5.13-12.03-12.72c0-7.96,5.28-13.17,12.43-13.17s12.03,5.25,12.03,12.69ZM940.38,925.86c0,5.36,3.1,10.16,8.54,10.16s8.57-4.73,8.57-10.42c0-4.99-2.78-10.2-8.54-10.2s-8.57,4.95-8.57,10.45Z"/>
    <path d="M973.25,913.18v14.84c0,5.62,2.66,8,6.23,8,3.97,0,6.51-2.46,6.51-8v-14.84h3.49v14.62c0,7.7-4.33,10.86-10.13,10.86-5.48,0-9.61-2.94-9.61-10.71v-14.77h3.49Z"/>
    <path d="M999.64,913.18h3.45v22.36h11.44v2.72h-14.89v-25.07Z"/>
    <path d="M1026.88,930.37l-2.78,7.89h-3.57l9.09-25.07h4.17l9.13,25.07h-3.69l-2.86-7.89h-9.49ZM1035.65,927.84l-2.62-7.22c-.6-1.64-.99-3.13-1.39-4.58h-.08c-.4,1.49-.83,3.01-1.35,4.54l-2.62,7.25h8.06Z"/>
    <path d="M1051.01,938.25v-25.07h3.77l8.58,12.69c1.99,2.94,3.53,5.58,4.8,8.15l.08-.04c-.32-3.35-.4-6.4-.4-10.3v-10.49h3.25v25.07h-3.49l-8.5-12.72c-1.87-2.79-3.65-5.65-5-8.37l-.12.04c.2,3.16.28,6.17.28,10.34v10.71h-3.26Z"/>
    <path d="M1101.67,937.14c-1.55.52-4.61,1.38-8.22,1.38-4.05,0-7.38-.97-10-3.31-2.3-2.08-3.73-5.43-3.73-9.34.04-7.48,5.52-12.95,14.49-12.95,3.1,0,5.52.63,6.67,1.15l-.83,2.64c-1.43-.6-3.22-1.08-5.92-1.08-6.51,0-10.76,3.8-10.76,10.08s4.09,10.12,10.32,10.12c2.26,0,3.81-.3,4.61-.67v-7.48h-5.44v-2.6h8.81v12.05Z"/>
    <path d="M1124.97,926.5h-10.4v9.04h11.59v2.72h-15.05v-25.07h14.45v2.72h-11v7.92h10.4v2.68Z"/>
    <path d="M1134.82,913.51c1.75-.33,4.25-.52,6.63-.52,3.69,0,6.07.63,7.74,2.05,1.35,1.12,2.11,2.83,2.11,4.76,0,3.31-2.22,5.51-5.04,6.4v.11c2.06.67,3.29,2.46,3.93,5.06.87,3.5,1.51,5.92,2.07,6.88h-3.57c-.44-.71-1.03-2.87-1.79-5.99-.8-3.46-2.23-4.76-5.36-4.87h-3.26v10.86h-3.45v-24.74ZM1138.27,924.93h3.53c3.69,0,6.03-1.9,6.03-4.76,0-3.24-2.5-4.65-6.15-4.69-1.67,0-2.86.15-3.41.3v9.15Z"/>
    <path d="M1163.8,913.18v25.07h-3.45v-25.07h3.45Z"/>
    <path d="M1187.86,926.5h-10.4v9.04h11.59v2.72h-15.05v-25.07h14.45v2.72h-11v7.92h10.4v2.68Z"/>
  </g>
</svg>