<?xml version="1.0" encoding="UTF-8"?>
<svg id="Design" xmlns="http://www.w3.org/2000/svg" viewBox="0 0 1682.98 1682.98">
  <path d="M1322.58,448.89v6.72h-65.91c-1.17,0-18.98,7.27-21.63,8.73-23.76,13.09-30.33,42.15-34.08,66.91-2.18,193.13-2.23,384.83-.21,574.61.27,25.33,8.98,57.97,32.76,71.59,3.6,2.06,27.55,10.58,29.92,10.58h62.53v3.36h-337.99v-3.36h59.15c13.43,0,38.33-12.76,47.43-23.41,8.27-9.68,18.48-36.93,18.48-48.82V462.32l-256.16,381.91,127.73,194.29v152.87l-9.58-5.6L504.13,481.31c-9.82-10.67-37.89-25.71-51.88-25.71h-76.05v-6.72h211.24l263.63,389.67,263.63-389.67h207.86Z"/>
  <polygon points="829.11 1191.39 821.37 1187.14 464.08 655.51 464.08 519.44 473.66 525.04 829.11 1055.32 829.11 1191.39"/>
</svg>