<?xml version="1.0" encoding="UTF-8"?>
<svg id="Design" xmlns="http://www.w3.org/2000/svg" version="1.1" viewBox="0 0 949.8 742.5">
  <!-- Generator: Adobe Illustrator 30.4.0, SVG Export Plug-In . SVG Version: 2.1.4 Build 226)  -->
  <path d="M946.4,0v6.7h-65.9c-1.2,0-19,7.3-21.6,8.7-23.8,13.1-30.3,42.1-34.1,66.9-2.2,193.1-2.2,384.8-.2,574.6.3,25.3,9,58,32.8,71.6,3.6,2.1,27.6,10.6,29.9,10.6h62.5v3.4h-338v-3.4h59.2c13.4,0,38.3-12.8,47.4-23.4,8.3-9.7,18.5-36.9,18.5-48.8V13.4l-256.2,381.9,127.7,194.3v152.9l-9.6-5.6L127.9,32.4c-9.8-10.7-37.9-25.7-51.9-25.7H0V0h211.2l263.6,389.7L738.5,0h207.9Z"/>
  <polygon points="452.9 742.5 445.2 738.3 87.9 206.6 87.9 70.6 97.5 76.2 452.9 606.4 452.9 742.5"/>
</svg>